<?xml version="1.0" encoding="UTF-8" standalone="no"?>
<svg
   width="25.200001"
   height="31.921476"
   viewBox="0 0 12.599999 10.61438"
   fill="none"
   version="1.1"
   id="svg4"
   sodipodi:docname="pin.svg"
   inkscape:version="1.1.2 (0a00cf5339, 2022-02-04)"
   xmlns:inkscape="http://www.inkscape.org/namespaces/inkscape"
   xmlns:sodipodi="http://sodipodi.sourceforge.net/DTD/sodipodi-0.dtd"
   xmlns="http://www.w3.org/2000/svg"
   xmlns:svg="http://www.w3.org/2000/svg">
  <g
     id="g1166"
     transform="translate(0,1.3464525)">
    <path
       style="fill:#c19959;fill-opacity:1;stroke:#c19959;stroke-width:0.958008px;stroke-linecap:butt;stroke-linejoin:miter;stroke-opacity:1"
       d="M 5.7872836,14.422701 1.7724431,9.8470581 0.7547601,5.3318759 l 1.853069,-2.95099 2.05719,-1.3001193 2.6449553,-0.090655 2.6445838,1.2241615 1.2841878,2.604041 -0.284433,4.0453174 -2.073989,3.1705705 -2.5803241,2.483465 z"
       id="path666"
       clip-path="url(#clipPath243)"
       inkscape:path-effect="#path-effect247"
       inkscape:original-d="M 5.7872836,14.422701 1.7724431,9.8470581 0.7547601,5.3318759 l 1.853069,-2.95099 2.05719,-1.3001193 2.6449553,-0.090655 2.6445838,1.2241615 1.2841878,2.604041 -0.284433,4.0453174 -2.073989,3.1705705 -2.5803241,2.483465 z"
       transform="translate(0,-4.0196307)" />
    <path
       d="m 6.3001699,-0.52079369 h -1.7e-4 c -0.55402,0 -1.09559,0.16428 -1.55624,0.47208 -0.46065,0.3078 -0.81968,0.74528 -1.0317,1.25711999 -0.21201,0.51185 -0.26748,1.07507 -0.1594,1.61844 0.10808,0.54337 0.37487,1.04249 0.76662,1.43424 0.39175,0.39175 0.89087,0.65854 1.43424,0.76662 0.54337,0.10808 1.10659,0.05261 1.61844,-0.1594 0.51185,-0.21202 0.9493296,-0.57105 1.2571196,-1.0317 0.3078,-0.46064 0.47208,-1.00222 0.47208,-1.55624 v -1.7e-4 c -8.4e-4,-0.74261 -0.29621,-1.45456999 -0.82132,-1.97966999 -0.5250996,-0.52511 -1.2370596,-0.82048 -1.9796696,-0.82132 z m 0,-3.34883701 h -3.4e-4 c -1.63047,0.00184 -3.19364,0.650357 -4.34656,1.803267 -1.15291997,1.15292001 -1.80143389,2.71609001 -1.80326989,4.34656 v 1.7e-4 c 0,2.20312 1.02159989,4.52707 2.93009989,6.72177 0.86156,0.9952 1.83114,1.8913997 2.89086,2.6720997 l -3e-5,10e-5 0.00294,0.002 c 0.09557,0.067 0.20942,0.1029 0.3261,0.1029 0.11667,0 0.23052,-0.0359 0.32609,-0.1029 l 2e-5,1e-4 0.00289,-0.0022 c 1.05968,-0.7807 2.0292196,-1.6767997 2.8907296,-2.6718997 1.9086995,-2.1948 2.9302995,-4.5188 2.9302995,-6.72197 v -1.7e-4 c -0.0018,-1.63046999 -0.6504,-3.19363999 -1.8033,-4.34656 -1.1528995,-1.15291 -2.7160591,-1.801431 -4.3465291,-1.803267 z m -3.4e-4,7.813947 c -0.32904,-3e-5 -0.65068,-0.09762 -0.92427,-0.28042 -0.27364,-0.18284 -0.48691,-0.44271 -0.61285,-0.74676 -0.12594,-0.30405 -0.1589,-0.63861 -0.09469,-0.96139 0.0642,-0.32277 0.22268,-0.61926 0.45539,-0.85197 0.23271,-0.23270999 0.52919,-0.39118999 0.85197,-0.45538999 0.32277,-0.0642 0.65734,-0.03125 0.96139,0.09469 0.30405,0.12594 0.56392,0.33920999 0.74676,0.61284999 0.1828,0.27359 0.28039,0.59523 0.28042,0.92427 -5e-4,0.4412 -0.17599,0.86418 -0.48797,1.17615 -0.31197,0.31198 -0.73495,0.48747 -1.17615,0.48797 z m 1.7e-4,6.5537197 c -0.56668,-0.4451 -1.77007,-1.4621997 -2.85634,-2.8493997 -1.15063,-1.4694 -2.15645,-3.33681 -2.15645,-5.36827 0,-1.32946999 0.52813,-2.60448999 1.46821,-3.54458 0.94008,-0.94008 2.21511,-1.46821 3.54458,-1.46821 1.32947,0 2.6044996,0.52813 3.5445992,1.46821 0.9400999,0.94009001 1.4681999,2.21511001 1.4681999,3.54458 0,2.03146 -1.0059,3.89887 -2.1565395,5.36827 -1.08628,1.3872 -2.2896696,2.4043997 -2.8562596,2.8493997 z"
       fill="#c19959"
       stroke="#c19959"
       stroke-width="0.3"
       id="path2"
       style="stroke-width:0.3;stroke-miterlimit:4;stroke-dasharray:none" />
  </g>
  <defs
     id="defs8">
    <inkscape:path-effect
       effect="powerclip"
       id="path-effect247"
       is_visible="true"
       lpeversion="1"
       inverse="true"
       flatten="false"
       hide_clip="false"
       message="Usar a regra de preenchimento par ou ímpar na caixa de diálogo &lt;b&gt;preenchimento e contorno&lt;/b&gt; se nenhum resultado nivelar após converter o clipe em caminhos." />
    <clipPath
       clipPathUnits="userSpaceOnUse"
       id="clipPath38">
      <path
         d="M 7.00017,3.72557 H 7 c -0.55402,0 -1.09559,0.16428 -1.55624,0.47208 C 4.98311,4.50545 4.62408,4.94293 4.41206,5.45477 4.20005,5.96662 4.14458,6.52984 4.25266,7.07321 4.36074,7.61658 4.62753,8.1157 5.01928,8.50745 5.41103,8.8992 5.91015,9.16599 6.45352,9.27407 6.99689,9.38215 7.56011,9.32668 8.07196,9.11467 8.58381,8.90265 9.02129,8.54362 9.32908,8.08297 9.63688,7.62233 9.80116,7.08075 9.80116,6.52673 V 6.52656 C 9.80032,5.78395 9.50495,5.07199 8.97984,4.54689 8.45474,4.02178 7.74278,3.72641 7.00017,3.72557 Z m 0,-3.348837 H 6.99983 C 5.36936,0.378569 3.80619,1.02709 2.65327,2.18 1.50035,3.33292 0.851836,4.89609 0.85,6.52656 v 1.7e-4 c 0,2.20312 1.0216,4.52707 2.9301,6.72177 0.86156,0.9952 1.83114,1.8914 2.89086,2.6721 l -3e-5,10e-5 0.00294,0.002 c 0.09557,0.067 0.20942,0.1029 0.3261,0.1029 0.11667,0 0.23052,-0.0359 0.32609,-0.1029 l 2e-5,10e-5 0.00289,-0.0022 C 8.38865,15.1399 9.35819,14.2438 10.2197,13.2487 12.1284,11.0539 13.15,8.7299 13.15,6.52673 V 6.52656 C 13.1482,4.89609 12.4996,3.33292 11.3467,2.18 10.1938,1.02709 8.63064,0.378569 7.00017,0.376733 Z M 6.99983,8.19068 C 6.67079,8.19065 6.34915,8.09306 6.07556,7.91026 5.80192,7.72742 5.58865,7.46755 5.46271,7.1635 5.33677,6.85945 5.30381,6.52489 5.36802,6.20211 5.43222,5.87934 5.5907,5.58285 5.82341,5.35014 6.05612,5.11743 6.3526,4.95895 6.67538,4.89475 6.99815,4.83055 7.33272,4.8635 7.63677,4.98944 7.94082,5.11538 8.20069,5.32865 8.38353,5.60229 8.56633,5.87588 8.66392,6.19752 8.66395,6.52656 8.66345,6.96776 8.48796,7.39074 8.17598,7.70271 7.86401,8.01469 7.44103,8.19018 6.99983,8.19068 Z M 7,14.7444 C 6.43332,14.2993 5.22993,13.2822 4.14366,11.895 2.99303,10.4256 1.98721,8.55819 1.98721,6.52673 1.98721,5.19726 2.51534,3.92224 3.45542,2.98215 4.3955,2.04207 5.67053,1.51394 7,1.51394 c 1.32947,0 2.6045,0.52813 3.5446,1.46821 0.9401,0.94009 1.4682,2.21511 1.4682,3.54458 0,2.03146 -1.0059,3.89887 -2.15654,5.36827 C 8.76998,13.2822 7.56659,14.2994 7,14.7444 Z"
         fill="#c19959"
         stroke="#c19959"
         stroke-width="0.3"
         id="path40"
         style="display:block" />
    </clipPath>
    <inkscape:path-effect
       effect="powerclip"
       id="path-effect42"
       is_visible="true"
       lpeversion="1"
       inverse="true"
       flatten="false"
       hide_clip="false"
       message="Usar a regra de preenchimento par ou ímpar na caixa de diálogo &lt;b&gt;preenchimento e contorno&lt;/b&gt; se nenhum resultado nivelar após converter o clipe em caminhos." />
    <clipPath
       clipPathUnits="userSpaceOnUse"
       id="clipPath243">
      <path
         style="display:none;fill:#ffffff;fill-opacity:1;stroke:#ffffff;stroke-width:1px;stroke-linecap:butt;stroke-linejoin:miter;stroke-opacity:1"
         d="m 4.6756464,5.2617573 1.214039,-0.8414449 1.8467038,0.0594 L 8.3434441,6.9653716 6.9523547,7.877592 5.0692179,7.892937 4.3115481,6.3525482 Z"
         id="path245" />
      <path
         id="lpe_path-effect247"
         style="fill:#ffffff;fill-opacity:1;stroke:#ffffff;stroke-width:1px;stroke-linecap:butt;stroke-linejoin:miter;stroke-opacity:1"
         class="powerclip"
         d="M -4.7559625,-4.4925206 H 16.725658 V 20.033492 H -4.7559625 Z M 4.6756464,5.2617573 4.3115481,6.3525482 5.0692179,7.892937 6.9523547,7.877592 8.3434441,6.9653716 7.7363892,4.4797124 5.8896854,4.4203124 Z" />
    </clipPath>
  </defs>
  <sodipodi:namedview
     id="namedview6"
     pagecolor="#ffffff"
     bordercolor="#666666"
     borderopacity="1.0"
     inkscape:pageshadow="2"
     inkscape:pageopacity="0.0"
     inkscape:pagecheckerboard="0"
     showgrid="false"
     fit-margin-top="0"
     fit-margin-left="0"
     fit-margin-right="0"
     fit-margin-bottom="0"
     inkscape:zoom="20.764706"
     inkscape:cx="-2.7932011"
     inkscape:cy="5.5623229"
     inkscape:window-width="1920"
     inkscape:window-height="1021"
     inkscape:window-x="0"
     inkscape:window-y="29"
     inkscape:window-maximized="1"
     inkscape:current-layer="svg4" />
</svg>
